<svg xmlns="http://www.w3.org/2000/svg" viewBox="0 0 780 400" role="img" aria-label="Scattered outline shapes, and a large lowercase t holding one filled clay dot in the curve of its foot: found."><style>.a-stroke{color:#221B16} .a-soft{color:#8E7A66} .a-faint{color:#E0D2C0} .a-dot{color:#B14B2E} .a-accent{color:#B14B2E} .a-fill{color:#F1E8DC} .a-panel{color:#FAF5EF} .a-peach{color:#FFD9A8} .a-invert{color:#26201A} .a-oninvert{color:#FAF5EF} .a-oninvert2{color:#A2917F}@media (prefers-color-scheme: dark){.a-stroke{color:#FAF5EF} .a-soft{color:#A2917F} .a-faint{color:#3A2E26} .a-dot{color:#E08963} .a-accent{color:#E08963} .a-fill{color:#221B16} .a-panel{color:#2A211B} .a-peach{color:#4A3423} .a-invert{color:#FAF5EF} .a-oninvert{color:#221B16} .a-oninvert2{color:#8E7A66}}</style><path d="M 46 76 C 140 20, 210 140, 300 92 S 470 20, 560 84 S 700 190, 620 240 S 480 320, 482 272" class="a-faint" stroke="currentColor" fill="none" stroke-width="6" stroke-linecap="round" stroke-linejoin="round"/><circle cx="70" cy="84" r="15" fill="none" class="a-soft" stroke="currentColor" stroke-width="8"/><rect x="182" y="28" width="48" height="48" rx="8" fill="none" class="a-soft" stroke="currentColor" stroke-width="8" stroke-linejoin="round"/><circle cx="330" cy="96" r="11" fill="none" class="a-soft" stroke="currentColor" stroke-width="8"/><rect x="452" y="24" width="40" height="40" rx="8" fill="none" class="a-soft" stroke="currentColor" stroke-width="8" stroke-linejoin="round"/><circle cx="600" cy="90" r="16" fill="none" class="a-soft" stroke="currentColor" stroke-width="8"/><rect x="694" y="38" width="44" height="44" rx="8" fill="none" class="a-soft" stroke="currentColor" stroke-width="8" stroke-linejoin="round"/><rect x="90" y="188" width="40" height="40" rx="8" fill="none" class="a-soft" stroke="currentColor" stroke-width="8" stroke-linejoin="round"/><circle cx="250" cy="170" r="13" fill="none" class="a-soft" stroke="currentColor" stroke-width="8"/><circle cx="560" cy="190" r="10" fill="none" class="a-soft" stroke="currentColor" stroke-width="8"/><rect x="650" y="158" width="36" height="36" rx="8" fill="none" class="a-soft" stroke="currentColor" stroke-width="8" stroke-linejoin="round"/><circle cx="78" cy="322" r="9" fill="none" class="a-soft" stroke="currentColor" stroke-width="8"/><rect x="173" y="285" width="30" height="30" rx="8" fill="none" class="a-soft" stroke="currentColor" stroke-width="8" stroke-linejoin="round"/><circle cx="640" cy="300" r="13" fill="none" class="a-soft" stroke="currentColor" stroke-width="8"/><circle cx="716" cy="250" r="8" fill="none" class="a-soft" stroke="currentColor" stroke-width="8"/><path d="M 400 128 L 400 268 Q 400 344 480 344" class="a-stroke" stroke="currentColor" fill="none" stroke-width="34" stroke-linecap="round" stroke-linejoin="round"/><path d="M 336 196 L 462 196" class="a-stroke" stroke="currentColor" fill="none" stroke-width="34" stroke-linecap="round" stroke-linejoin="round"/><circle cx="482" cy="272" r="24" class="a-dot" fill="currentColor"/></svg>
